<?xml version="1.0" encoding="utf-8"?>
<!-- Generator: Adobe Illustrator 18.1.1, SVG Export Plug-In . SVG Version: 6.00 Build 0)  -->
<svg version="1.1" id="Layer_1" xmlns="http://www.w3.org/2000/svg" xmlns:xlink="http://www.w3.org/1999/xlink" x="0px" y="0px"
	 viewBox="6 281.8 600 225" enable-background="new 6 281.8 600 225" xml:space="preserve">
<g>
	<path fill="#E2D0A6" d="M111.4,482c-46.8,0-84.8-37.9-84.8-84.8s37.9-84.8,84.8-84.8s84.8,37.9,84.8,84.8S157.9,482,111.4,482z"/>
	<path fill="#8B2332" d="M111.4,315.5c45,0,81.7,36.7,81.7,81.7s-36.7,81.7-81.7,81.7s-81.7-36.7-81.7-81.7
		C29.7,352.2,66.4,315.5,111.4,315.5 M111.4,309.4c-48.7,0-87.8,39.2-87.8,87.8c0,48.3,39.2,87.8,87.8,87.8s87.8-39.2,87.8-87.8
		C199.2,348.6,159.7,309.4,111.4,309.4L111.4,309.4z"/>
	<path fill="#E2D0A6" d="M111.4,312.5c46.8,0,84.8,37.9,84.8,84.8S158.2,482,111.4,482s-84.8-38.3-84.8-84.8
		C26.6,350.4,64.6,312.5,111.4,312.5 M111.4,309.4c-48.7,0-87.8,39.2-87.8,87.8c0,48.3,39.2,87.8,87.8,87.8s87.8-39.2,87.8-87.8
		C199.2,348.6,159.7,309.4,111.4,309.4L111.4,309.4z"/>
	<path fill="#8B2332" d="M111.4,309.4c48.3,0,87.8,39.2,87.8,87.8c0,48.3-39.2,87.8-87.8,87.8s-87.8-39.5-87.8-87.8
		C23.6,348.6,62.7,309.4,111.4,309.4 M111.4,300.2c-53.6,0-97,43.5-97,97s43.5,97,97,97s97-43.5,97-97
		C208.4,343.7,164.6,300.2,111.4,300.2L111.4,300.2z"/>
</g>
<g>
	<path fill="#FFFFFF" d="M90.6,322.3l11.3-4c0,0,7.7,4.6,14.1,4s8.9,3.1,8.9,3.1l8.3,4.3c0,0,4.9,0.3,11-2.4c2.4,0,5.5,3.7,5.5,3.7
		l4.3,13.8l-2.8,8.9l-1.5,7.6l4.3,8.6V388l-2.4,11.3c0,0,2.1,11,0,15.6c-2.1,4.9-4.6,10.1-4.6,10.1s0.3,4-2.8,10.4
		s-4.9,10.4-4.9,10.4l-4,8.9l-4.9,4.6c0,0-7,5.5-13.2,5.8c-6.1,0.3-20.2-2.8-20.2-2.8L82.3,444l-8.3-26.6l-3.7-21.7l5.5-30.6l1.5-26
		L90.6,322.3z"/>
	<g>
		<g>
			<defs>
				<circle id="SVGID_1_" cx="111.4" cy="397.2" r="87.8"/>
			</defs>
			<clipPath id="SVGID_2_">
				<use xlink:href="#SVGID_1_"  overflow="visible"/>
			</clipPath>
			<path clip-path="url(#SVGID_2_)" fill="#FFFFFF" d="M74.1,441.9l-8.3,11.6l-4.3,22V486h97l-15-12.5l-2.1-8c0,0-1.8-1.2-5.2-4
				c-0.9-0.9-3.4-3.4-3.4-3.4l-30.9-7.3L74.1,441.9z"/>
		</g>
		<g>
			<defs>
				<circle id="SVGID_3_" cx="111.4" cy="397.2" r="87.8"/>
			</defs>
			<clipPath id="SVGID_4_">
				<use xlink:href="#SVGID_3_"  overflow="visible"/>
			</clipPath>
			<g id="XMLID_1_" clip-path="url(#SVGID_4_)">
				<g>
					<path d="M151.5,473.4c16.5,0.9,33.4,1.5,40.1,12.2c-17.4,0.3-36.1,0.6-53.5,0c1.5-6.1,0.9-14.7,3.1-20.2c1.5,1.8,2.8,4,4.3,5.8
						C147.5,471.9,149.3,472.5,151.5,473.4z"/>
					<path d="M159.1,358.1c0.3,0,1.5,0.6,3.1-0.6c1.2,4.3-2.4,6.7-1.5,10.4c-1.5,2.8-0.9,8-2.4,10.7c-0.3,3.1-0.6,5.8-1.5,8
						c-0.6,3.1-0.9,6.4-3.4,8c-0.9-5.5,0.6-10.4,0.6-15.9c-1.5-5.2-2.4-11-4.6-15.6c-4.6-0.3-7.3-2.4-11.3-3.7
						c-4,1.5-11.6,1.5-15-0.6c-0.6-2.1,0-3.7-1.5-4.6c0.6-4-0.3-7.6-0.9-11.6c-2.4-0.6-1.2,2.8-0.9,3.7c-1.2,2.8-3.7,4.6-3.1,8
						c-4.9,2.8-12.5,1.2-18.7-0.6c-2.1-0.6-3.7-2.1-5.8-0.6c0,2.8-1.8,3.7-3.4,4.9c0,0.6,0,1.5,0,2.1c-2.4,1.2-0.6,7-2.4,8.6
						c2.1,3.4,0.3,9.2-0.6,13.2c0.9,1.2,3.7,0.6,5.5-0.3c7,1.5,15,0.6,19,5.2c3.1,0,4,2.1,5.2,3.7c0,3.4-1.2,5.2-2.8,7
						c-1.2-0.3-1.2-1.8-2.4-1.8c-0.9,2.1-4.3,0.3-5.8,0.6c1.2-1.8-0.9-3.1-2.8-3.7c-0.6,0.9-0.9,2.1-1.5,3.1
						c-2.4,0.9-5.2,0.3-7.3-0.9c-1.2,2.8,2.1,3.1,2.8,4.6c-6.7,0.3-11.9-4.3-18.7-4.3c-1.8,5.2,2.8,10.7,4.3,16.8
						c1.8,2.8,4.3,5.2,6.4,7.6c0.6,3.1,0.6,5.2,1.8,7.3c-0.3,0.9-1.2,1.5-1.8,2.1c0.6,1.5,0.9-0.6,1.8-0.3c0.3,1.2-0.6,1.2-0.9,2.1
						c0.9,0.6,1.5,1.2,2.8,1.5c-0.6,1.5-1.2,2.4,0,4c-0.3,0-0.6,0-1.2,0c0.9,1.2,1.2,2.8,2.1,4c0,0.9-0.6,0.9-1.2,1.5
						c0.9,3.7,4.6,5.8,3.4,10.1c5.5,9.5,18.1,11.6,30.9,10.1c-4,4-8,8.3-10.7,13.5c-0.9,0.6-1.5-0.3-1.8,0.6
						C96.1,469.1,80.8,461.5,71,448c-1.2,1.5-0.3,4,0,5.2c3.4,11.9,11.6,21.1,15.9,31.8c-25.7,0-51.4,0-77.1,0
						c12.5-4.6,23.9-10.7,35.5-16.5c5.8-10.1,15.6-16.5,21.7-26c0.9-0.9,2.1-1.5,2.8-2.4c-0.9-6.4-1.5-13.5-1.5-20.5
						c-0.6-0.6-1.2,0.3-2.4,0c-2.4-0.6-4-1.8-5.8-3.1c-2.1-3.4-3.7-8.3-4.6-13.8c-0.9-5.5-4.3-13.2-0.3-18.1
						c0.9-0.6,1.5-1.2,2.8-1.5c1.2,0,2.1,0.6,3.7,0.3c0-3.4-1.8-6.1-1.5-11c0.3-3.1,1.5-6.4,1.8-10.1c0.3-3.4-0.3-6.4,0-9.2
						c0.9-6.4,6.4-13.8,8.3-19.6c4.3-4.9,10.1-8.6,13.8-13.8c6.4-0.9,15-3.7,21.7-1.5c0.3,1.2,1.8,2.1,0.6,3.4
						c1.2,2.1,3.7,3.4,4.6,5.5c-0.3,1.8-0.9,4.6,1.2,4.6c0.9,0.3,0.6-0.6,0.6-1.2c1.2,0.3,1.8,1.5,3.1,1.8c0-1.8-1.5-3.7,0.6-4.3
						c-0.3-1.5-1.8-1.8-1.8-3.4c2.4-3.1,8.6-5.5,13.2-2.8c0.9,3.4,3.4,5.5,7,6.4c-1.2,1.2-3.4,0-4.6,1.2c0,1.5,1.8,1.2,1.8,2.8
						c0,1.2-1.2,1.5-1.5,2.4c0.9,2.1,1.8,4,3.4,5.5c0,0.9-1.2,0.9-2.1,0.9c-0.3,1.8,2.1,1.2,2.1,2.8c-1.8,1.5,0,3.7-0.9,5.2
						c0.9,1.8,5.2,1.8,7.3,0.9c-1.5-2.4-0.9-3.7-2.8-4.9c1.2-1.2-0.6-2.4,0-3.7c1.8-1.8,3.7-2.4,7-2.1c0.3-1.2,1.5-2.1,1.8-3.4
						c-2.1-1.2-6.7,0.9-8.6-1.2c3.4,0.3,8-0.3,9.5-3.7c-2.1-1.2-3.7,1.8-7,0.3c0-1.5,0.3-3.1,0.6-4.3c5.8-0.9,13.5-1.2,15,4
						c-0.6,1.8-0.9,3.7-1.2,6.1c1.2,0.3,1.8-1.8,2.1-3.1c0.9,0.6,0,2.4,0,3.7c0.6,0.6,0.9-0.3,1.5-0.3c-0.9,2.8,1.5,7.6-1.5,9.8
						c0.3,1.2,0.9,2.4,0,3.4c1.2-0.6,1.2-2.1,2.8-2.1C161,351.9,161.9,355.9,159.1,358.1z M156.7,367.8c2.1-0.3,3.7-2.4,3.7-4.3
						c-1.5-0.3-1.8,2.1-2.8,1.5c0.6-0.6,0.9-1.5,0.9-2.8c-1.2-1.2-2.4,0.6-2.4,2.4C156.4,366.3,157.3,366.3,156.7,367.8z M157,355.9
						c0.3-0.9,1.8-2.4,1.5-3.4C157.9,353.8,155.4,355,157,355.9z M148.7,341.8c0.9,0,2.8-1.2,1.5-1.5
						C149.9,341.2,148.1,340.3,148.7,341.8z M114.1,338.5c-0.3-2.8-1.8-4.3-3.4-6.1c-0.3,0.6,0,1.5-0.6,1.5c-0.6,0-0.6-0.6-1.5-0.6
						c-0.6,3.1,0.3,5.2,1.8,6.7c2.1-0.9,0-3.7,0-4.9C112.3,335.7,112,338.2,114.1,338.5z M104.7,342.1c1.2-0.3,1.5-1.2,1.8-2.1
						c-0.3-1.8-2.1-3.4-3.4-1.5C103.7,339.7,104,341.2,104.7,342.1z M99.4,393.6c0-0.3,0-0.9-0.3-1.2
						C98.8,392.9,98.8,393.6,99.4,393.6z M93,390.2c1.2,0.6,4.3,0.6,4.9-0.6C96.7,389,93.3,388.4,93,390.2z"/>
					<path fill="#FFFFFF" d="M160.3,363.9c0.3,1.8-1.5,4-3.7,4.3c0.6-1.8-0.3-1.5-0.9-2.8c0-1.8,1.2-3.7,2.4-2.4
						c0,1.2-0.3,2.1-0.9,2.8C158.2,366,158.8,363.6,160.3,363.9z"/>
					<path fill="#FFFFFF" d="M158.2,352.5c0.3,0.9-0.9,2.4-1.5,3.4C155.4,355,157.9,353.8,158.2,352.5z"/>
					<path d="M146.3,392c1.8-0.9,5.2,0,4.6,3.1c-0.3,0.3-0.6,0.6-0.9,1.2c-4.3-0.9-7-4.3-11.9-2.1c3.4,2.1,10.7,1.8,9.2,7.6
						c-3.4,0.9-5.2-1.5-7-3.4c-1.8,2.1-4.6,0.9-7.3,0.6c-0.6-0.6-0.9-1.5-1.2-2.4c-1.2,0-0.6,1.5-1.2,2.1c-3.1,0.6-4.3-1.2-6.1-1.2
						c-0.9-1.5,0-3.7,0.3-5.2c1.5-0.6,2.4-1.5,3.7-2.4c3.4-0.9,8.3-0.9,11.6-0.6c0.9-0.3,0.6,0.9,1.5,1.2
						C143.8,390.2,145.7,390.8,146.3,392z"/>
					<path fill="#FFFFFF" d="M149.9,340.3c1.2,0.6-0.3,1.8-1.5,1.5C148.1,340.3,149.9,341.2,149.9,340.3z"/>
					<path d="M139.8,333.3c0,0.9-0.6,0.9-1.2,1.5c-1.5-0.9-2.4-0.6-4-1.5C136.5,332.7,138.6,332,139.8,333.3z"/>
					<path d="M120.9,435.5c3.7,0.9,8.3,0.9,10.7,2.8c-8.9,0.9-18.7,0-27.8,0.9c-1.5-0.6-3.4-1.2-4.9-1.8c0.3-1.8,1.8-2.1,3.7-1.5
						c3.7-0.6,6.7-0.3,11-0.6c1.2,0.3,2.1,1.2,3.7,1.5C118.4,436.1,119.6,435.8,120.9,435.5z"/>
					<path d="M120.3,421.1c3.4,0.6,6.1-1.2,8,0.3c-2.4,3.7-6.1,5.8-10.7,7.3c-1.5-0.3-1.5-1.8-2.1-2.4c-3.1-0.3-5.8-0.9-7.3-2.8
						c-1.2-3.4-0.3-7.3,1.5-9.2c0.9,1.2-0.9,2.8,0.3,4c1.2,0.3,2.4-0.3,4-0.6C116.3,418.6,118.1,420.2,120.3,421.1z"/>
					<path d="M117.8,449.2c0,0.3,0,0.3,0,0.6c-0.3,0-0.3,0-0.6,0c0-0.3,0-0.3,0-0.6C117.5,449.2,117.8,449.2,117.8,449.2z"/>
					<path d="M116.9,449.9c-0.3,0.6-1.2,0.6-2.1,0.6c0-0.3,0-0.6,0-1.2c-0.9,1.5-3.7,1.2-5.8,1.2c-0.3-0.9,0.9-0.9,0.9-1.5
						C112.3,449.2,114.8,447.7,116.9,449.9z"/>
					<path d="M115.7,446.5c0,0.6-0.6,0.3-0.6,1.2c-1.2,0-1.5-0.6-2.4-0.9C112.9,445.3,115.1,445.6,115.7,446.5z"/>
					<path fill="#FFFFFF" d="M110.8,332.4c1.2,1.8,3.1,3.4,3.4,6.1c-1.8-0.3-1.5-2.8-3.4-3.4c0,1.2,2.1,4,0,4.9
						c-1.8-1.5-2.4-3.7-1.8-6.7c0.6,0,0.9,0.3,1.5,0.6C110.8,333.9,110.5,333,110.8,332.4z"/>
					<path fill="#FFFFFF" d="M106.5,340c-0.6,0.9-0.9,1.8-1.8,2.1c-0.6-0.9-0.9-2.4-1.5-3.7C104.7,336.6,106.2,338.2,106.5,340z"/>
					<path fill="#FFFFFF" d="M99.1,392.6c0.3,0,0.3,0.6,0.3,1.2C98.8,393.6,98.8,392.9,99.1,392.6z"/>
					<path fill="#FFFFFF" d="M97.9,389.6c-0.6,0.9-3.7,0.9-4.9,0.6C93.3,388.4,96.7,389,97.9,389.6z"/>
				</g>
			</g>
		</g>
	</g>
	<path d="M122.1,463l-9.8,10.4l2.8,2.8l18.7-19.3C126.7,462.1,122.1,463,122.1,463z"/>
	<path fill="#FFFFFF" d="M157.9,359c0,0-1.2,2.4-4.3,3.7v-2.4C153.9,359.9,156.1,357.8,157.9,359z"/>
</g>
<text transform="matrix(1 0 0 1 222.7371 360.4388)" fill="#1A1A1A" font-family="'Calluna-Bold'" font-size="48.8156">The Ronald</text>
<text transform="matrix(1 0 0 1 468.7617 360.4388)" fill="#1A1A1A" font-family="'Calluna-Bold'" font-size="48.8156"> </text>
<text transform="matrix(1 0 0 1 478.5536 360.4388)" fill="#1A1A1A" font-family="'Calluna-Bold'" font-size="48.8156">W. </text>
<text transform="matrix(1 0 0 1 222.7371 411.2363)" fill="#1A1A1A" font-family="'Calluna-Bold'" font-size="48.8156">Reagan Society</text>
<text transform="matrix(1 0 0 1 222.7371 461.7267)" fill="#1A1A1A" font-family="'Calluna-Bold'" font-size="48.8156">of Eureka College</text>
</svg>
